# File created by Blade
# Date/Time:  Mon Sep 22 15:50:36 2014
# Frame Rate: 120.000 fps
#------------------------------------------------------
:FULLY-SPECIFIED
:DEGREES
1883
root 2.017558 37.063283 3.206963 -1.065067 -5.913881 1.248874
RightUpLeg 8.540499 -3.223457 -3.140216
RightLeg -4.220304 -0.000000 0.000000
RightFoot -12.446249 -14.975540 15.623560
RightToeBase 14.394716 -0.000000 -0.000000
LeftUpLeg 8.963627 4.298797 2.006005
LeftLeg -3.501209 -0.000000 0.000000
LeftFoot -10.146209 14.539314 -18.150928
LeftToeBase 9.682855 -0.000000 -0.000000
Spine -1.332801 -11.570132 -3.093864
RightShoulder 8.006668 -23.765948 -10.638440
RightArm 25.672523 -30.087470 59.763875
RightForeArm 14.446542 -0.000000 33.916283
RightHand 3.184060 -0.000000 -0.025657
RightHandThumb1 -24.326973 -0.000000 -32.862282
LeftShoulder -11.156395 21.881802 18.835761
LeftArm 101.932957 -58.474578 -128.807865
LeftForeArm -58.679531 -0.000000 91.809382
LeftHand -22.307883 -0.000000 17.920931
LeftHandThumb1 -26.253704 0.000000 33.147579
Head 19.135967 25.819222 14.868281
1884
root 2.016171 37.062005 3.205080 -1.040788 -5.887041 1.232129
RightUpLeg 8.527828 -3.192585 -3.114244
RightLeg -4.236786 -0.000000 0.000000
RightFoot -12.452423 -15.028435 15.627233
RightToeBase 14.386139 -0.000000 -0.000000
LeftUpLeg 8.937222 4.293885 2.024627
LeftLeg -3.504910 -0.000000 0.000000
LeftFoot -10.149994 14.531686 -18.114978
LeftToeBase 9.685957 -0.000000 -0.000000
Spine -1.319859 -11.623374 -3.208958
RightShoulder 8.004820 -23.729505 -10.555359
RightArm 25.579182 -30.029826 59.842458
RightForeArm 14.384516 -0.000000 34.154293
RightHand 3.123767 -0.000000 0.015700
RightHandThumb1 -24.326973 -0.000000 -32.862282
LeftShoulder -11.156183 21.909721 18.868417
LeftArm 102.106718 -58.347938 -129.099351
LeftForeArm -58.320982 -0.000000 95.878482
LeftHand -22.362982 -0.000000 18.555163
LeftHandThumb1 -26.253704 0.000000 33.147579
Head 19.145438 25.777301 15.051370
1885
root 2.015505 37.061244 3.202975 -1.017582 -5.858812 1.219577
RightUpLeg 8.516207 -3.180532 -3.097841
RightLeg -4.250351 -0.000000 0.000000
RightFoot -12.452125 -15.051948 15.643843
RightToeBase 14.334614 -0.000000 -0.000000
LeftUpLeg 8.907981 4.292185 2.038354
LeftLeg -3.502192 -0.000000 0.000000
LeftFoot -10.166549 14.506647 -18.133603
LeftToeBase 9.658177 -0.000000 -0.000000
Spine -1.310938 -11.655659 -3.307340
RightShoulder 7.993829 -23.748775 -10.501441
RightArm 25.544256 -29.914916 59.957622
RightForeArm 14.309066 -0.000000 34.343527
RightHand 3.142776 0.000000 -0.149677
RightHandThumb1 -24.326973 -0.000000 -32.862282
LeftShoulder -11.047756 21.895792 18.911524
LeftArm 102.270805 -58.359355 -129.380612
LeftForeArm -58.042367 0.000000 99.976844
LeftHand -22.079262 0.000000 19.029969
LeftHandThumb1 -26.253704 0.000000 33.147579
Head 19.158448 25.795938 15.227550
1886
root 2.015390 37.060008 3.200421 -1.000984 -5.836861 1.210214
RightUpLeg 8.502662 -3.185837 -3.084028
RightLeg -4.258245 -0.000000 0.000000
RightFoot -12.468383 -15.075180 15.666368
RightToeBase 14.405807 -0.000000 -0.000000
LeftUpLeg 8.881253 4.310589 2.049588
LeftLeg -3.494828 -0.000000 0.000000
LeftFoot -10.154330 14.479932 -18.076935
LeftToeBase 9.643295 -0.000000 -0.000000
Spine -1.282622 -11.681100 -3.411196
RightShoulder 7.956965 -23.715619 -10.426504
RightArm 25.531201 -29.831107 60.062508
RightForeArm 14.259710 0.000000 34.452137
RightHand 3.198975 -0.000000 -0.364018
RightHandThumb1 -24.326973 -0.000000 -32.862282
LeftShoulder -10.966389 21.851973 18.951013
LeftArm 102.431967 -58.324290 -129.625276
LeftForeArm -57.895831 0.000000 104.019977
LeftHand -22.071415 -0.000000 19.524456
LeftHandThumb1 -26.253704 0.000000 33.147579
Head 19.189505 25.718974 15.365411
1887
root 2.014816 37.059481 3.197295 -0.977901 -5.807634 1.194966
RightUpLeg 8.492137 -3.168167 -3.065017
RightLeg -4.268080 -0.000000 0.000000
RightFoot -12.556466 -15.060001 15.870761
RightToeBase 14.547134 -0.000000 -0.000000
LeftUpLeg 8.850056 4.301842 2.065137
LeftLeg -3.491758 -0.000000 0.000000
LeftFoot -10.150276 14.467079 -18.055959
LeftToeBase 9.618187 -0.000000 -0.000000
Spine -1.265587 -11.695305 -3.494914
RightShoulder 7.920882 -23.740062 -10.357586
RightArm 25.534434 -29.737187 60.132603
RightForeArm 14.213538 -0.000000 34.612585
RightHand 3.219568 -0.000000 -0.421331
RightHandThumb1 -24.326973 -0.000000 -32.862282
LeftShoulder -10.866359 21.932663 18.961500
LeftArm 102.756562 -58.213742 -129.975221
LeftForeArm -57.919813 0.000000 107.988298
LeftHand -21.969878 -0.000000 20.064732
LeftHandThumb1 -26.253704 0.000000 33.147579
Head 19.187193 25.659938 15.484127
1888
root 2.016285 37.058924 3.195326 -0.962408 -5.774973 1.187960
RightUpLeg 8.482291 -3.212768 -3.063682
RightLeg -4.269821 -0.000000 0.000000
RightFoot -12.568667 -15.032746 15.902330
RightToeBase 14.556248 -0.000000 -0.000000
LeftUpLeg 8.821748 4.298463 2.071235
LeftLeg -3.479864 -0.000000 0.000000
LeftFoot -10.163904 14.444894 -18.037542
LeftToeBase 9.661462 -0.000000 -0.000000
Spine -1.249685 -11.731948 -3.564331
RightShoulder 7.921597 -23.776235 -10.325990
RightArm 25.545545 -29.627305 60.221748
RightForeArm 14.246185 -0.000000 34.756095
RightHand 3.283368 -0.000000 -0.371976
RightHandThumb1 -24.326973 -0.000000 -32.862282
LeftShoulder -10.746302 22.084803 18.964398
LeftArm 103.192692 -58.080859 -130.483434
LeftForeArm -58.144293 -0.000000 111.889835
LeftHand -21.281629 0.000000 19.597062
LeftHandThumb1 -26.253704 0.000000 33.147579
Head 19.218461 25.652652 15.579498
1889
root 2.018414 37.057750 3.192305 -0.947761 -5.746985 1.192433
RightUpLeg 8.467214 -3.256691 -3.074557
RightLeg -4.276936 -0.000000 0.000000
RightFoot -12.480238 -15.044013 15.710291
RightToeBase 14.399151 -0.000000 -0.000000
LeftUpLeg 8.790166 4.305346 2.066044
LeftLeg -3.464646 -0.000000 0.000000
LeftFoot -10.154587 14.412581 -18.012237
LeftToeBase 9.643432 -0.000000 -0.000000
Spine -1.230147 -11.768704 -3.645973
RightShoulder 7.941937 -23.787961 -10.302238
RightArm 25.550482 -29.545600 60.334857
RightForeArm 14.194674 -0.000000 34.861736
RightHand 3.218838 -0.000000 -0.356224
RightHandThumb1 -24.326973 -0.000000 -32.862282
LeftShoulder -10.615023 22.201201 19.025406
LeftArm 103.603957 -57.960054 -131.024001
LeftForeArm -58.574625 -0.000000 115.681334
LeftHand -20.831030 -0.000000 19.266615
LeftHandThumb1 -26.253704 0.000000 33.147579
Head 19.244844 25.653054 15.682763
1890
root 2.020432 37.056592 3.190698 -0.943497 -5.718804 1.188021
RightUpLeg 8.471216 -3.286284 -3.073410
RightLeg -4.282876 -0.000000 0.000000
RightFoot -12.565846 -15.017487 15.878191
RightToeBase 14.591566 -0.000000 -0.000000
LeftUpLeg 8.777148 4.304916 2.069335
LeftLeg -3.459767 -0.000000 0.000000
LeftFoot -10.164126 14.394391 -17.999811
LeftToeBase 9.649948 -0.000000 -0.000000
Spine -1.199528 -11.803200 -3.706310
RightShoulder 7.955819 -23.793866 -10.278519
RightArm 25.568486 -29.499004 60.409201
RightForeArm 14.223233 -0.000000 34.970058
RightHand 3.284160 -0.000000 -0.487044
RightHandThumb1 -24.326973 -0.000000 -32.862282
LeftShoulder -10.515679 22.296354 19.062528
LeftArm 103.939736 -57.818872 -131.474314
LeftForeArm -58.834644 -0.000000 119.238665
LeftHand -19.908654 -0.000000 18.251474
LeftHandThumb1 -26.253704 0.000000 33.147579
Head 19.268515 25.687884 15.774497
1891
root 2.022109 37.054969 3.187246 -0.933158 -5.693097 1.189437
RightUpLeg 8.451954 -3.444408 -3.092889
RightLeg -4.274908 -0.000000 0.000000
RightFoot -12.457340 -14.913657 15.695914
RightToeBase 14.422568 -0.000000 -0.000000
LeftUpLeg 8.752122 4.321741 2.069090
LeftLeg -3.448235 -0.000000 0.000000
LeftFoot -10.174532 14.357568 -17.989711
LeftToeBase 9.702675 -0.000000 -0.000000
Spine -1.182211 -11.848430 -3.742668
RightShoulder 7.998742 -23.784159 -10.281887
RightArm 25.588259 -29.487262 60.455413
RightForeArm 14.251390 -0.000000 35.080481
RightHand 3.317033 0.000000 -0.542205
RightHandThumb1 -24.326973 -0.000000 -32.862282
LeftShoulder -10.385378 22.323883 19.116517
LeftArm 104.296920 -57.748709 -132.026362
LeftForeArm -58.873604 -0.000000 122.532492
LeftHand -18.795875 0.000000 16.557097
LeftHandThumb1 -26.253704 0.000000 33.147579
Head 19.287720 25.780100 15.813036
1892
root 2.026048 37.053217 3.185672 -0.944543 -5.664379 1.200494
RightUpLeg 8.465098 -3.478020 -3.111520
RightLeg -4.279533 -0.000000 0.000000
RightFoot -12.461233 -14.921907 15.644872
RightToeBase 14.396387 -0.000000 -0.000000
LeftUpLeg 8.748696 4.322155 2.054703
LeftLeg -3.435395 -0.000000 0.000000
LeftFoot -10.183214 14.327735 -17.982025
LeftToeBase 9.694651 -0.000000 -0.000000
Spine -1.128434 -11.903716 -3.785400
RightShoulder 8.019426 -23.776151 -10.280915
RightArm 25.675752 -29.501189 60.467936
RightForeArm 14.242237 0.000000 35.156004
RightHand 3.267312 -0.000000 -0.601162
RightHandThumb1 -24.326973 -0.000000 -32.862282
LeftShoulder -10.357032 22.352808 19.139664
LeftArm 104.642253 -57.515010 -132.610085
LeftForeArm -58.109240 0.000000 125.544706
LeftHand -17.983950 -0.000000 14.909421
LeftHandThumb1 -26.253704 0.000000 33.147579
Head 19.277539 25.843866 15.815204
